<svg width="1749" height="288" viewBox="0 0 1749 288" fill="none" xmlns="http://www.w3.org/2000/svg">
<path d="M0 0L19.4333 10.7C38.8667 21 77.7333 43 116.6 37.3C155.467 32 194.333 0 233.2 0C272.067 0 310.933 32 349.8 69.3C388.667 107 427.533 149 466.4 165.3C505.267 181 544.133 171 583 160C621.867 149 660.733 139 699.6 149.3C738.467 160 777.333 192 816.2 208C855.067 224 893.933 224 932.8 218.7C971.667 213 1010.53 203 1049.4 176C1088.27 149 1127.13 107 1166 85.3C1204.87 64 1228.6 116.5 1270 123C1311.4 129.5 1346.5 85.3 1388 104.5C1429.5 123.7 1458.5 176 1515.8 186.7C1557.01 194.395 1593.53 181 1632.4 170.7C1671.27 160 1710.13 160 1729.57 160H1749V288H1729.57C1710.13 288 1671.27 288 1632.4 288C1593.53 288 1554.67 288 1515.8 288C1476.93 288 1438.07 288 1399.2 288C1360.33 288 1321.47 288 1282.6 288C1243.73 288 1204.87 288 1166 288C1127.13 288 1088.27 288 1049.4 288C1010.53 288 971.667 288 932.8 288C893.933 288 855.067 288 816.2 288C777.333 288 738.467 288 699.6 288C660.733 288 621.867 288 583 288C544.133 288 505.267 288 466.4 288C427.533 288 388.667 288 349.8 288C310.933 288 272.067 288 233.2 288C194.333 288 155.467 288 116.6 288C77.7333 288 38.8667 288 19.4333 288H0V0Z" fill="#545353"/>
</svg>
